<svg xmlns="http://www.w3.org/2000/svg" xmlns:xlink="http://www.w3.org/1999/xlink" width="84" height="84" viewBox="0 0 84 84">
  <defs>
    <radialGradient id="radial-gradient" cx="0.5" cy="0.5" r="0.5" gradientUnits="objectBoundingBox">
      <stop offset="0" stop-color="#fff"/>
      <stop offset="0.733" stop-color="#fff" stop-opacity="0.8"/>
      <stop offset="1" stop-color="#fff" stop-opacity="0"/>
    </radialGradient>
    <clipPath id="clip-path">
      <rect id="Rectángulo_470935" data-name="Rectángulo 470935" width="52.143" height="50.307" fill="#12263f"/>
    </clipPath>
  </defs>
  <g id="Grupo_1180467" data-name="Grupo 1180467" transform="translate(-705.629 -410)">
    <g id="Grupo_1180287" data-name="Grupo 1180287">
      <circle id="Elipse_13692" data-name="Elipse 13692" cx="42" cy="42" r="42" transform="translate(705.629 410)" fill="url(#radial-gradient)"/>
      <g id="Grupo_1220915" data-name="Grupo 1220915" transform="translate(721.558 426.846)">
        <g id="Grupo_1220914" data-name="Grupo 1220914" clip-path="url(#clip-path)">
          <path id="Trazado_1277164" data-name="Trazado 1277164" d="M49.532,30.742a3.083,3.083,0,0,0-3.37,2.122l-2.687-.042-4.3-4.924L27.9,27.88l0-5.414,11.27-.03,4.406-5.012,2.622.066a3,3,0,0,0,3.4,2.1,3.1,3.1,0,0,0,2.538-2.981,3.04,3.04,0,0,0-2.633-3.06,3.107,3.107,0,0,0-3.361,2.138l-3.428.058L38.4,20.709,27.91,20.7V17.928L38.5,17.9l3.3-3.876.058-3.437a3.034,3.034,0,0,0-.953-5.931,3.035,3.035,0,0,0-.807,5.939,8.951,8.951,0,0,0,.017,1.09,4.91,4.91,0,0,1-.085,1.655l-2.308,2.85-9.817-.015v-3.6l3.927-.059.024-.025a6.35,6.35,0,0,0,.84-1.211c.122-.21.248-.426.389-.638a3.056,3.056,0,1,0-1.539-4.9,2.966,2.966,0,0,0,.076,3.925l-.741,1.168L27.9,10.813,27.89,4.7l0-.027A6.784,6.784,0,0,0,21.752.056c-2.5-.35-4.8.941-6.836,3.836-3.041-.351-5.321.263-6.774,1.824a6.958,6.958,0,0,0-1.824,6.757,6.97,6.97,0,0,0-4.251,3.984,7.041,7.041,0,0,0,.3,5.888A6.514,6.514,0,0,0,.06,28.316a6.709,6.709,0,0,0,3.714,4.865A7.074,7.074,0,0,0,3.7,40.137a6.729,6.729,0,0,0,5.211,3.518,6.3,6.3,0,0,0,3.167,5.194,6.427,6.427,0,0,0,5.967.191,6.535,6.535,0,0,0,3.843,1.268,6.365,6.365,0,0,0,5.916-4.019l.006-.014.052-6.753,2.975-.005a5.2,5.2,0,0,1,.77,1.18,3.037,3.037,0,0,0-.008,4.01,3.053,3.053,0,1,0,1.51-4.957l-1.245-1.971-3.96-.066V34.173h9.776l2.437,2.858L40.1,39.71a3.073,3.073,0,0,0,.833,6.021h0a3.074,3.074,0,0,0,.915-6.012L41.8,36.273l-3.353-3.879-10.54-.013,0-2.756,10.483-.006,4.286,4.908.02.022.029,0a13.091,13.091,0,0,0,2.334.081c.35-.009.71-.018,1.08-.014a3.11,3.11,0,0,0,3.537,2.114,3.017,3.017,0,0,0,2.443-3.053,3.052,3.052,0,0,0-2.59-2.941m.623,3.739a1.214,1.214,0,0,1-.8.542,1.3,1.3,0,0,1-1.566-.934,1.289,1.289,0,0,1,.133-1.005,1.313,1.313,0,0,1,2.41.347,1.319,1.319,0,0,1-.176,1.051m-2.3-18.407a1.23,1.23,0,0,1,.69-.706,1.286,1.286,0,0,1,1.737.684,1.309,1.309,0,0,1-.74,1.732,1.169,1.169,0,0,1-.884.017,1.368,1.368,0,0,1-.785-.7,1.311,1.311,0,0,1-.018-1.023m-5.67-7.91a1.324,1.324,0,0,1-2.381.1,1.265,1.265,0,0,1-.1-.97,1.351,1.351,0,0,1,.711-.823,1.232,1.232,0,0,1,.986-.06,1.3,1.3,0,0,1,.754.7,1.365,1.365,0,0,1,.026,1.048m-9.534-.954a1.26,1.26,0,0,1,.722-.752,1.312,1.312,0,0,1,1.739.733,1.138,1.138,0,0,1,.023.879,1.436,1.436,0,0,1-.73.8,1.322,1.322,0,0,1-1.663-.549,1.361,1.361,0,0,1-.09-1.107M21.833,25a.9.9,0,0,0-.232,1.042.868.868,0,0,0,.53.456.763.763,0,0,0,.661-.092,2.748,2.748,0,0,1,3.291.28l.062,18.955a4.551,4.551,0,0,1-6.56,2.294,4.626,4.626,0,0,0,.865-5.444.908.908,0,0,0-1.137-.47.814.814,0,0,0-.476.475.824.824,0,0,0,.019.7,2.8,2.8,0,0,1-.6,3.567,4.565,4.565,0,0,1-7.628-3.238c1.259-.369,4.056-1.406,4.338-3.4a.851.851,0,0,0-.578-1c-.569-.2-.816.207-1.1.68a2.659,2.659,0,0,1-1.03,1.11c-.116.06-.234.123-.355.187a5.554,5.554,0,0,1-2.146.791A5.039,5.039,0,0,1,5.1,39.023a5.211,5.211,0,0,1,.8-5.745.951.951,0,0,0,.206-.863.908.908,0,0,0-.6-.6,4.591,4.591,0,0,1-3.763-4.179,4.508,4.508,0,0,1,3.176-4.671A2.663,2.663,0,0,1,7.7,23.9c.445.42.829.782,1.3.538a.884.884,0,0,0,.439-.553.868.868,0,0,0-.1-.694A4.561,4.561,0,0,0,3.82,21.459,4.958,4.958,0,0,1,3.706,16.9a5.061,5.061,0,0,1,3.282-2.762,3.619,3.619,0,0,0,4.474,1.345.886.886,0,0,0,.47-1.123.72.72,0,0,0-.385-.444.946.946,0,0,0-.752-.031,1.919,1.919,0,0,1-1.518,0,2.1,2.1,0,0,1-1.069-1.235A5.262,5.262,0,0,1,9.421,6.977a5.346,5.346,0,0,1,5.723-1.092c.145.053.293.1.441.148a3.048,3.048,0,0,1,1.484.8,3.694,3.694,0,0,1,.866,2.938c-.03.692-.053,1.239.579,1.436a.867.867,0,0,0,.649-.087.8.8,0,0,0,.4-.488,5.076,5.076,0,0,0-2.814-6.09,5.243,5.243,0,0,1,4.819-2.856A5.119,5.119,0,0,1,26.2,5.021L26.13,15.267a4.531,4.531,0,0,0-4.42.421.867.867,0,0,0-.209,1.039.933.933,0,0,0,.583.465.73.73,0,0,0,.622-.124,2.711,2.711,0,0,1,3.34.238l.1,7.327c-1.676-.65-3.6-.337-4.312.371M35.149,42.276a1.223,1.223,0,0,1-.076.95,1.32,1.32,0,0,1-.746.665,1.3,1.3,0,0,1-1.644-.728,1.351,1.351,0,0,1,.021-1.093,1.327,1.327,0,0,1,.844-.684,1.3,1.3,0,0,1,1.6.891m6.965,1a1.267,1.267,0,0,1-.757.626,1.334,1.334,0,0,1-1.631-.776,1.237,1.237,0,0,1,.016-.974,1.358,1.358,0,0,1,.808-.748,1.258,1.258,0,0,1,.986.07,1.286,1.286,0,0,1,.659.726,1.392,1.392,0,0,1-.082,1.077" transform="translate(0 0)" fill="#12263f"/>
          <path id="Trazado_1277165" data-name="Trazado 1277165" d="M104.851,179.154a2.8,2.8,0,0,1-3.125-2.6.869.869,0,0,0-.372-.65.851.851,0,0,0-.7-.145.876.876,0,0,0-.665,1.1,4.7,4.7,0,0,0,1.832,3.157,4.425,4.425,0,0,0,2.656.885,4.571,4.571,0,0,0,.733-.06.778.778,0,0,0,.532-.367.854.854,0,0,0-.892-1.314" transform="translate(-83.73 -147.176)" fill="#12263f"/>
          <path id="Trazado_1277166" data-name="Trazado 1277166" d="M77.533,116.2a.928.928,0,0,0,.762.434.893.893,0,0,0,.462-.131.877.877,0,0,0,.326-1.08,4.458,4.458,0,0,0-3.03-2.122,4.262,4.262,0,0,0-3.441.817.529.529,0,0,0-.174.465,1.036,1.036,0,0,0,.34.733,1.058,1.058,0,0,0,1.139.01,2.762,2.762,0,0,1,3.614.875" transform="translate(-60.667 -94.822)" fill="#12263f"/>
          <path id="Trazado_1277167" data-name="Trazado 1277167" d="M63.078,180.7a2.924,2.924,0,0,1-2.153-3.286.7.7,0,0,0-.166-.57.875.875,0,0,0-.664-.274.838.838,0,0,0-.88.8,4.559,4.559,0,0,0,3.377,5.029,1.343,1.343,0,0,0,.329.044.859.859,0,0,0,.478-.133.837.837,0,0,0,.353-.59.927.927,0,0,0-.675-1.016" transform="translate(-49.565 -147.874)" fill="#12263f"/>
        </g>
      </g>
    </g>
    <g id="Elipse_13693" data-name="Elipse 13693" transform="translate(705.629 410)" fill="none" stroke="#fff" stroke-width="1">
      <circle cx="42" cy="42" r="42" stroke="none"/>
      <circle cx="42" cy="42" r="41.5" fill="none"/>
    </g>
  </g>
</svg>
