<svg xmlns="http://www.w3.org/2000/svg" xmlns:xlink="http://www.w3.org/1999/xlink" width="168" height="168" viewBox="0 0 168 168">
  <defs>
    <linearGradient id="linear-gradient" x1="0.5" x2="0.5" y2="1" gradientUnits="objectBoundingBox">
      <stop offset="0" stop-color="#edea34"/>
      <stop offset="1" stop-color="#8fed42"/>
    </linearGradient>
    <filter id="Elipse_13687" x="0" y="0" width="168" height="168" filterUnits="userSpaceOnUse">
      <feOffset dy="3" input="SourceAlpha"/>
      <feGaussianBlur stdDeviation="3" result="blur"/>
      <feFlood flood-opacity="0.161"/>
      <feComposite operator="in" in2="blur"/>
      <feComposite in="SourceGraphic"/>
    </filter>
    <radialGradient id="radial-gradient" cx="0.5" cy="0.5" r="0.5" gradientUnits="objectBoundingBox">
      <stop offset="0" stop-color="#fff"/>
      <stop offset="0.807" stop-color="#fff" stop-opacity="0.808"/>
      <stop offset="1" stop-color="#fff" stop-opacity="0"/>
    </radialGradient>
    <clipPath id="clip-path">
      <rect id="Rectángulo_470942" data-name="Rectángulo 470942" width="67.082" height="66.917" fill="#12263f"/>
    </clipPath>
  </defs>
  <g id="Grupo_1180490" data-name="Grupo 1180490" transform="translate(-992.765 -162)">
    <g id="Grupo_1180283" data-name="Grupo 1180283" transform="translate(1001.765 168)">
      <g transform="matrix(1, 0, 0, 1, -9, -6)" filter="url(#Elipse_13687)">
        <circle id="Elipse_13687-2" data-name="Elipse 13687" cx="75" cy="75" r="75" transform="translate(9 6)" fill="url(#linear-gradient)"/>
      </g>
      <ellipse id="Elipse_13689" data-name="Elipse 13689" cx="63.5" cy="64" rx="63.5" ry="64" transform="translate(11 10)" fill="url(#radial-gradient)"/>
    </g>
    <g id="Grupo_1220929" data-name="Grupo 1220929" transform="translate(1041.257 206.194)">
      <g id="Grupo_1220928" data-name="Grupo 1220928" clip-path="url(#clip-path)">
        <path id="Trazado_1277204" data-name="Trazado 1277204" d="M88.022,58.246H125.93l0-43.311-5.241-.018a1.129,1.129,0,0,1-1.239-1.081l-.031-5.411-31.394,0L87.985,21.8a1.08,1.08,0,1,1-2.148-.224V7.391c0-.5.311-1.072.84-1.075l5.41-.035.034-5.117A1.119,1.119,0,0,1,93.353,0l33.936.016,7.132,7.206,0,45.758a1.136,1.136,0,0,1-1.214,1.152h-5.114l-.006,5.177a1.023,1.023,0,0,1-1.17,1.085l-40.007-.008A1.015,1.015,0,0,1,85.842,59.3l0-3.859a1.034,1.034,0,0,1,.947-1.1A1.023,1.023,0,0,1,88,55.414ZM132.3,51.872V8.656l-5.531-.045a1.036,1.036,0,0,1-1.019-1.1l-.037-5.385-31.469.014.083,4.149,26.706.014,7.055,7.09.005,38.557ZM130.616,6.441l-2.577-2.6a7.813,7.813,0,0,0-.05,2.636ZM124.4,12.724l-2.777-2.781-.029,2.815Z" transform="translate(-67.341 0)" fill="#12263f"/>
        <path id="Trazado_1277205" data-name="Trazado 1277205" d="M45.86,120.6a20.047,20.047,0,0,1-3.606,4.808l9.123.048c.693,0,1.117.315,1.161.9.041.535-.209,1.2-.9,1.2l-12.42.034a17.092,17.092,0,0,1-18.907-1.156L16.757,129.9c.587,1.411-.017,2.53-1.045,3.522l-8.087,7.8a2.721,2.721,0,0,1-4.106-.268,35.336,35.336,0,0,1-3.163-3.506c-.811-1.254-.11-2.523.863-3.468l6.653-6.466,2.014-1.872c.685-.636,1.78-.338,2.523-.3l3.72-3.515A17.09,17.09,0,0,1,38.183,97.478l13.242.006a1.05,1.05,0,0,1,1.121,1.058,1.071,1.071,0,0,1-1,1.08L41.6,99.7a18.544,18.544,0,0,1,3.906,4.724l6.313.084c.518.007.691.61.716.937.032.421-.14,1.117-.714,1.124l-5.23.068a22.139,22.139,0,0,1,1.1,4.788l3.686.027a1.051,1.051,0,0,1,1.153.9A1.039,1.039,0,0,1,51.5,113.6l-3.777.069a23.047,23.047,0,0,1-.915,4.727l5.005.119c.584.014.746.711.719,1.137a.941.941,0,0,1-.927.943ZM28.14,98.122a14.919,14.919,0,1,0,17.252,12.463A14.912,14.912,0,0,0,28.14,98.122M15.387,128.161l3.283-3.136a9.106,9.106,0,0,1-1.216-1.418l-3.391,3.248a6.829,6.829,0,0,0,1.324,1.306m-9.6,11.827,8.25-8.039c.44-.2,1.056-.859.662-1.263l-3.354-3.44L8.1,130.329l-6.048,5.933Z" transform="translate(0 -75.118)" fill="#12263f"/>
        <path id="Trazado_1277206" data-name="Trazado 1277206" d="M142.357,73.327l-17.262.062a1.147,1.147,0,0,1-1.247-1.01,1.1,1.1,0,0,1,1.043-1.159l17.387.025c.533,0,.7.654.732.951s-.075,1.128-.653,1.13" transform="translate(-97.158 -55.874)" fill="#12263f"/>
        <path id="Trazado_1277207" data-name="Trazado 1277207" d="M91.84,113.29a13.317,13.317,0,1,1-11.323,15.188A13.272,13.272,0,0,1,91.84,113.29m.222,2.146a11.16,11.16,0,1,0,12.658,9.335,11.147,11.147,0,0,0-12.658-9.335" transform="translate(-63.052 -88.774)" fill="#12263f"/>
        <path id="Trazado_1277208" data-name="Trazado 1277208" d="M134.673,139.009c-.052,1.5-.8,2.55-2.03,2.726a2.273,2.273,0,0,1-2.74-2.1l-.378-8.91a2.614,2.614,0,0,1,.629-2.078,3.123,3.123,0,0,1,4.056-.126,2.618,2.618,0,0,1,.752,2.206Zm-1.9-8.83c.007-.217-.912-.26-1.083-.055l.409,9.471.378-.137Z" transform="translate(-101.611 -100.284)" fill="#12263f"/>
        <path id="Trazado_1277209" data-name="Trazado 1277209" d="M131.651,196.49a2.752,2.752,0,1,1-2.111,3.385,2.732,2.732,0,0,1,2.111-3.385m.22,2.185a.62.62,0,0,0-.105.915.6.6,0,0,0,.944-.708.57.57,0,0,0-.839-.207" transform="translate(-101.562 -154.102)" fill="#12263f"/>
      </g>
    </g>
  </g>
</svg>
